<svg width="1643" height="700" viewBox="0 0 1643 700" fill="none" xmlns="http://www.w3.org/2000/svg">
<rect width="1643" height="700" fill="#D9D9D9"/>
<path d="M413.134 340.072C415.438 340.371 418.019 340.584 420.878 340.712C423.779 340.84 426.83 340.904 430.03 340.904C432.078 340.904 434.126 340.861 436.174 340.776C438.264 340.691 440.248 340.584 442.126 340.456C444.046 340.285 445.774 340.136 447.31 340.008V345.256C445.859 345.341 444.174 345.448 442.254 345.576C440.334 345.704 438.307 345.811 436.174 345.896C434.083 345.981 432.035 346.024 430.03 346.024C426.83 346.024 423.843 345.96 421.07 345.832C418.296 345.661 415.651 345.491 413.134 345.32V340.072ZM415.694 365.864C415.267 367.144 414.926 368.381 414.67 369.576C414.456 370.771 414.35 371.965 414.35 373.16C414.35 375.592 415.608 377.576 418.126 379.112C420.643 380.648 424.462 381.416 429.582 381.416C432.526 381.416 435.363 381.309 438.094 381.096C440.824 380.883 443.32 380.584 445.582 380.2C447.886 379.816 449.848 379.368 451.47 378.856L451.534 384.36C449.998 384.787 448.099 385.171 445.838 385.512C443.619 385.853 441.144 386.109 438.414 386.28C435.683 386.493 432.782 386.6 429.71 386.6C425.4 386.6 421.71 386.131 418.638 385.192C415.566 384.253 413.219 382.867 411.598 381.032C409.976 379.197 409.166 376.936 409.166 374.248C409.166 372.584 409.315 371.005 409.614 369.512C409.912 368.019 410.211 366.632 410.51 365.352L415.694 365.864ZM477.134 340.072C479.438 340.371 482.019 340.584 484.878 340.712C487.779 340.84 490.83 340.904 494.03 340.904C496.078 340.904 498.126 340.861 500.174 340.776C502.264 340.691 504.248 340.584 506.126 340.456C508.046 340.285 509.774 340.136 511.31 340.008V345.256C509.859 345.341 508.174 345.448 506.254 345.576C504.334 345.704 502.307 345.811 500.174 345.896C498.083 345.981 496.035 346.024 494.03 346.024C490.83 346.024 487.843 345.96 485.07 345.832C482.296 345.661 479.651 345.491 477.134 345.32V340.072ZM479.694 365.864C479.267 367.144 478.926 368.381 478.67 369.576C478.456 370.771 478.35 371.965 478.35 373.16C478.35 375.592 479.608 377.576 482.126 379.112C484.643 380.648 488.462 381.416 493.582 381.416C496.526 381.416 499.363 381.309 502.094 381.096C504.824 380.883 507.32 380.584 509.582 380.2C511.886 379.816 513.848 379.368 515.47 378.856L515.534 384.36C513.998 384.787 512.099 385.171 509.838 385.512C507.619 385.853 505.144 386.109 502.414 386.28C499.683 386.493 496.782 386.6 493.71 386.6C489.4 386.6 485.71 386.131 482.638 385.192C479.566 384.253 477.219 382.867 475.598 381.032C473.976 379.197 473.166 376.936 473.166 374.248C473.166 372.584 473.315 371.005 473.614 369.512C473.912 368.019 474.211 366.632 474.51 365.352L479.694 365.864ZM555.278 341.8C557.027 342.056 559.054 342.269 561.358 342.44C563.704 342.568 566.115 342.632 568.59 342.632C571.107 342.589 573.496 342.504 575.758 342.376C578.062 342.205 580.003 341.992 581.582 341.736V346.92C579.875 347.091 577.87 347.24 575.566 347.368C573.304 347.453 570.936 347.496 568.462 347.496C566.03 347.496 563.662 347.453 561.358 347.368C559.054 347.24 557.027 347.091 555.278 346.92V341.8ZM557.774 367.848C557.475 369 557.24 370.045 557.07 370.984C556.899 371.923 556.814 372.84 556.814 373.736C556.814 374.461 556.963 375.187 557.262 375.912C557.603 376.595 558.158 377.213 558.926 377.768C559.736 378.28 560.846 378.707 562.254 379.048C563.662 379.347 565.454 379.496 567.63 379.496C570.531 379.496 573.262 379.368 575.822 379.112C578.382 378.813 580.942 378.387 583.502 377.832L583.63 383.208C581.624 383.635 579.278 383.976 576.59 384.232C573.944 384.445 570.958 384.552 567.63 384.552C562.254 384.552 558.307 383.699 555.79 381.992C553.315 380.285 552.078 377.939 552.078 374.952C552.078 373.885 552.163 372.755 552.334 371.56C552.547 370.323 552.824 368.936 553.166 367.4L557.774 367.848ZM543.054 336.872C542.968 337.213 542.84 337.661 542.67 338.216C542.542 338.728 542.392 339.261 542.222 339.816C542.094 340.328 541.987 340.776 541.902 341.16C541.688 342.355 541.432 343.741 541.134 345.32C540.835 346.856 540.536 348.52 540.238 350.312C539.982 352.061 539.726 353.853 539.47 355.688C539.256 357.48 539.064 359.229 538.894 360.936C538.766 362.643 538.702 364.221 538.702 365.672C538.702 367.251 538.744 368.744 538.83 370.152C538.958 371.56 539.107 373.053 539.278 374.632C539.662 373.651 540.067 372.605 540.494 371.496C540.92 370.387 541.347 369.299 541.774 368.232C542.243 367.123 542.648 366.141 542.99 365.288L545.678 367.336C545.123 368.872 544.526 370.557 543.886 372.392C543.246 374.227 542.67 375.997 542.158 377.704C541.688 379.368 541.347 380.691 541.134 381.672C541.048 382.141 540.963 382.653 540.878 383.208C540.792 383.763 540.771 384.211 540.814 384.552C540.856 384.893 540.878 385.256 540.878 385.64C540.92 386.067 540.963 386.451 541.006 386.792L536.398 387.112C535.758 384.851 535.203 381.949 534.734 378.408C534.264 374.824 534.03 370.877 534.03 366.568C534.03 364.221 534.136 361.832 534.35 359.4C534.563 356.925 534.84 354.536 535.182 352.232C535.523 349.885 535.843 347.752 536.142 345.832C536.483 343.869 536.739 342.227 536.91 340.904C537.038 340.136 537.144 339.368 537.23 338.6C537.315 337.789 537.358 337.043 537.358 336.36L543.054 336.872ZM613.003 385V350.091H618.366V385H613.003ZM615.73 344.273C614.685 344.273 613.783 343.917 613.026 343.205C612.283 342.492 611.912 341.636 611.912 340.636C611.912 339.636 612.283 338.78 613.026 338.068C613.783 337.356 614.685 337 615.73 337C616.776 337 617.67 337.356 618.412 338.068C619.17 338.78 619.548 339.636 619.548 340.636C619.548 341.636 619.17 342.492 618.412 343.205C617.67 343.917 616.776 344.273 615.73 344.273ZM628.19 385V350.091H633.372V355.545H633.827C634.554 353.682 635.728 352.235 637.349 351.205C638.971 350.159 640.918 349.636 643.19 349.636C645.493 349.636 647.41 350.159 648.94 351.205C650.486 352.235 651.69 353.682 652.554 355.545H652.918C653.812 353.742 655.152 352.311 656.94 351.25C658.728 350.174 660.872 349.636 663.372 349.636C666.493 349.636 669.046 350.614 671.031 352.568C673.016 354.508 674.009 357.53 674.009 361.636V385H668.645V361.636C668.645 359.061 667.94 357.22 666.531 356.114C665.122 355.008 663.463 354.455 661.554 354.455C659.099 354.455 657.198 355.197 655.849 356.682C654.501 358.152 653.827 360.015 653.827 362.273V385H648.372V361.091C648.372 359.106 647.728 357.508 646.44 356.295C645.152 355.068 643.493 354.455 641.463 354.455C640.069 354.455 638.766 354.826 637.554 355.568C636.357 356.311 635.387 357.341 634.645 358.659C633.918 359.962 633.554 361.47 633.554 363.182V385H628.19ZM697.906 398.818C695.315 398.818 693.088 398.485 691.224 397.818C689.361 397.167 687.808 396.303 686.565 395.227C685.338 394.167 684.361 393.03 683.634 391.818L687.906 388.818C688.391 389.455 689.005 390.182 689.747 391C690.49 391.833 691.505 392.553 692.793 393.159C694.096 393.78 695.8 394.091 697.906 394.091C700.724 394.091 703.05 393.409 704.884 392.045C706.717 390.682 707.634 388.545 707.634 385.636V378.545H707.179C706.785 379.182 706.224 379.97 705.497 380.909C704.785 381.833 703.755 382.659 702.406 383.386C701.073 384.098 699.27 384.455 696.997 384.455C694.179 384.455 691.649 383.788 689.406 382.455C687.179 381.121 685.414 379.182 684.111 376.636C682.823 374.091 682.179 371 682.179 367.364C682.179 363.788 682.808 360.674 684.065 358.023C685.323 355.356 687.073 353.295 689.315 351.841C691.558 350.371 694.149 349.636 697.088 349.636C699.361 349.636 701.164 350.015 702.497 350.773C703.846 351.515 704.876 352.364 705.588 353.318C706.315 354.258 706.876 355.03 707.27 355.636H707.815V350.091H712.997V386C712.997 389 712.315 391.439 710.952 393.318C709.603 395.212 707.785 396.598 705.497 397.477C703.224 398.371 700.694 398.818 697.906 398.818ZM697.724 379.636C699.876 379.636 701.694 379.144 703.179 378.159C704.664 377.174 705.793 375.758 706.565 373.909C707.338 372.061 707.724 369.848 707.724 367.273C707.724 364.758 707.346 362.538 706.588 360.614C705.83 358.689 704.709 357.182 703.224 356.091C701.74 355 699.906 354.455 697.724 354.455C695.452 354.455 693.558 355.03 692.043 356.182C690.543 357.333 689.414 358.879 688.656 360.818C687.914 362.758 687.543 364.909 687.543 367.273C687.543 369.697 687.921 371.841 688.679 373.705C689.452 375.553 690.588 377.008 692.088 378.068C693.603 379.114 695.482 379.636 697.724 379.636ZM770.002 346.792C769.277 347.261 768.509 347.709 767.698 348.136C766.888 348.563 766.013 349.011 765.074 349.48C764.008 350.077 762.685 350.76 761.106 351.528C759.528 352.296 757.842 353.149 756.05 354.088C754.258 355.027 752.466 356.008 750.674 357.032C748.882 358.056 747.197 359.08 745.618 360.104C742.632 362.024 740.285 364.051 738.578 366.184C736.914 368.317 736.082 370.6 736.082 373.032C736.082 375.677 737.341 377.789 739.858 379.368C742.418 380.904 746.216 381.672 751.25 381.672C753.597 381.672 756.029 381.587 758.546 381.416C761.064 381.203 763.474 380.925 765.778 380.584C768.125 380.243 770.109 379.88 771.73 379.496V385.192C770.152 385.491 768.274 385.747 766.098 385.96C763.965 386.216 761.661 386.408 759.186 386.536C756.712 386.707 754.152 386.792 751.506 386.792C748.477 386.792 745.704 386.536 743.186 386.024C740.669 385.555 738.472 384.808 736.594 383.784C734.76 382.76 733.33 381.416 732.306 379.752C731.282 378.045 730.77 375.997 730.77 373.608C730.77 371.261 731.261 369.107 732.242 367.144C733.224 365.139 734.632 363.24 736.466 361.448C738.301 359.656 740.477 357.928 742.994 356.264C744.616 355.155 746.344 354.088 748.178 353.064C750.056 351.997 751.89 350.973 753.682 349.992C755.474 349.011 757.138 348.115 758.674 347.304C760.253 346.493 761.576 345.811 762.642 345.256C763.538 344.701 764.349 344.211 765.074 343.784C765.8 343.315 766.504 342.803 767.186 342.248L770.002 346.792ZM737.618 335.208C738.6 337.939 739.645 340.605 740.754 343.208C741.906 345.811 743.058 348.243 744.21 350.504C745.405 352.765 746.493 354.771 747.474 356.52L743.058 359.144C741.992 357.395 740.861 355.325 739.666 352.936C738.472 350.547 737.277 348.008 736.082 345.32C734.888 342.632 733.714 339.965 732.562 337.32L737.618 335.208ZM806.994 339.752C806.824 338.941 806.632 338.173 806.418 337.448C806.248 336.723 806.034 336.04 805.778 335.4L811.538 334.376C811.581 334.973 811.666 335.699 811.794 336.552C811.922 337.363 812.029 338.109 812.114 338.792C812.2 339.219 812.392 340.221 812.69 341.8C812.989 343.336 813.352 345.277 813.778 347.624C814.248 349.971 814.76 352.509 815.314 355.24C815.869 357.971 816.424 360.723 816.978 363.496C817.533 366.269 818.045 368.872 818.514 371.304C818.984 373.736 819.389 375.805 819.73 377.512C820.114 379.219 820.37 380.371 820.498 380.968C820.712 381.907 820.946 382.888 821.202 383.912C821.458 384.936 821.736 385.896 822.034 386.792L816.21 387.88C816.04 386.813 815.89 385.789 815.762 384.808C815.634 383.784 815.464 382.803 815.25 381.864C815.165 381.309 814.952 380.2 814.61 378.536C814.312 376.829 813.928 374.781 813.458 372.392C812.989 370.003 812.477 367.443 811.922 364.712C811.368 361.939 810.813 359.187 810.258 356.456C809.746 353.725 809.256 351.187 808.786 348.84C808.317 346.493 807.912 344.509 807.57 342.888C807.272 341.267 807.08 340.221 806.994 339.752ZM788.946 348.968C789.714 348.925 790.525 348.883 791.378 348.84C792.274 348.755 793.234 348.648 794.258 348.52C795.24 348.392 796.605 348.221 798.354 348.008C800.104 347.752 802.066 347.475 804.242 347.176C806.461 346.835 808.744 346.472 811.09 346.088C813.48 345.704 815.784 345.341 818.002 345C820.221 344.616 822.226 344.275 824.018 343.976C825.81 343.677 827.218 343.421 828.242 343.208C829.181 343.037 830.034 342.867 830.802 342.696C831.613 342.483 832.274 342.291 832.786 342.12L833.874 347.56C833.405 347.603 832.722 347.688 831.826 347.816C830.973 347.901 830.12 348.008 829.266 348.136C828.157 348.307 826.685 348.541 824.85 348.84C823.016 349.139 820.968 349.48 818.706 349.864C816.488 350.205 814.205 350.568 811.858 350.952C809.512 351.293 807.229 351.656 805.01 352.04C802.834 352.381 800.893 352.701 799.186 353C797.48 353.256 796.157 353.469 795.218 353.64C794.322 353.768 793.469 353.917 792.658 354.088C791.89 354.259 791.016 354.472 790.034 354.728L788.946 348.968ZM788.754 367.464C789.522 367.421 790.44 367.357 791.506 367.272C792.573 367.144 793.533 367.016 794.386 366.888C795.538 366.76 797.074 366.547 798.994 366.248C800.957 365.949 803.154 365.608 805.586 365.224C808.061 364.797 810.6 364.371 813.202 363.944C815.848 363.517 818.408 363.091 820.882 362.664C823.357 362.237 825.618 361.853 827.666 361.512C829.757 361.128 831.421 360.829 832.658 360.616C833.896 360.403 834.984 360.189 835.922 359.976C836.861 359.763 837.672 359.571 838.354 359.4L839.378 364.776C838.738 364.819 837.906 364.925 836.882 365.096C835.901 365.224 834.813 365.395 833.618 365.608C832.21 365.821 830.44 366.099 828.306 366.44C826.216 366.781 823.933 367.165 821.458 367.592C818.984 367.976 816.445 368.381 813.842 368.808C811.282 369.192 808.808 369.597 806.418 370.024C804.029 370.408 801.896 370.771 800.018 371.112C798.141 371.411 796.648 371.667 795.538 371.88C794.301 372.093 793.213 372.285 792.274 372.456C791.378 372.627 790.589 372.819 789.906 373.032L788.754 367.464ZM870.546 345.832C870.674 346.387 870.802 347.005 870.93 347.688C871.101 348.371 871.272 349.117 871.442 349.928C871.698 350.824 872.061 352.211 872.53 354.088C873.042 355.923 873.64 358.035 874.322 360.424C875.005 362.813 875.688 365.288 876.37 367.848C877.096 370.365 877.778 372.797 878.418 375.144C879.101 377.491 879.677 379.539 880.146 381.288C880.658 382.995 881.021 384.232 881.234 385C881.405 385.384 881.554 385.832 881.682 386.344C881.853 386.899 882.024 387.432 882.194 387.944C882.365 388.499 882.514 388.968 882.642 389.352L877.202 390.76C877.117 390.035 876.989 389.267 876.818 388.456C876.69 387.688 876.498 386.899 876.242 386.088C876.029 385.363 875.666 384.104 875.154 382.312C874.685 380.52 874.109 378.429 873.426 376.04C872.786 373.651 872.125 371.176 871.442 368.616C870.76 366.056 870.077 363.581 869.394 361.192C868.754 358.803 868.178 356.712 867.666 354.92C867.197 353.085 866.834 351.784 866.578 351.016C866.365 350.205 866.13 349.48 865.874 348.84C865.618 348.2 865.341 347.645 865.042 347.176L870.546 345.832ZM901.266 354.6C900.626 355.965 899.752 357.501 898.642 359.208C897.576 360.915 896.381 362.643 895.058 364.392C893.778 366.141 892.477 367.805 891.154 369.384C889.874 370.92 888.701 372.221 887.634 373.288L883.09 371.048C884.456 369.896 885.842 368.552 887.25 367.016C888.658 365.437 889.981 363.837 891.218 362.216C892.456 360.595 893.416 359.144 894.098 357.864C893.714 357.907 892.818 358.077 891.41 358.376C890.045 358.675 888.338 359.037 886.29 359.464C884.285 359.848 882.088 360.275 879.698 360.744C877.309 361.213 874.898 361.704 872.466 362.216C870.077 362.685 867.816 363.133 865.682 363.56C863.549 363.987 861.693 364.371 860.114 364.712C858.578 365.011 857.49 365.224 856.85 365.352L855.57 360.488C856.466 360.403 857.32 360.317 858.13 360.232C858.984 360.104 859.901 359.955 860.882 359.784C861.309 359.699 862.184 359.528 863.506 359.272C864.872 359.016 866.514 358.717 868.434 358.376C870.397 357.992 872.488 357.608 874.706 357.224C876.925 356.797 879.144 356.371 881.362 355.944C883.624 355.517 885.736 355.112 887.698 354.728C889.661 354.344 891.346 354.024 892.754 353.768C894.162 353.469 895.122 353.256 895.634 353.128C896.018 353.043 896.424 352.936 896.85 352.808C897.32 352.637 897.725 352.488 898.066 352.36L901.266 354.6ZM940.818 348.136C941.117 348.776 941.501 349.736 941.97 351.016C942.44 352.253 942.93 353.576 943.442 354.984C943.997 356.392 944.488 357.736 944.914 359.016C945.341 360.253 945.661 361.235 945.874 361.96L941.138 363.624C940.968 362.899 940.669 361.917 940.242 360.68C939.858 359.443 939.41 358.12 938.898 356.712C938.386 355.261 937.874 353.917 937.362 352.68C936.85 351.443 936.445 350.461 936.146 349.736L940.818 348.136ZM963.986 351.72C963.773 352.36 963.581 352.957 963.41 353.512C963.282 354.024 963.154 354.493 963.026 354.92C962.173 358.419 961.021 361.853 959.57 365.224C958.12 368.552 956.242 371.667 953.938 374.568C950.994 378.323 947.666 381.459 943.954 383.976C940.285 386.493 936.658 388.435 933.074 389.8L928.85 385.512C931.325 384.744 933.821 383.72 936.338 382.44C938.898 381.16 941.309 379.624 943.57 377.832C945.874 376.04 947.901 374.056 949.65 371.88C951.186 370.003 952.552 367.891 953.746 365.544C954.984 363.197 956.008 360.701 956.818 358.056C957.629 355.411 958.184 352.723 958.482 349.992L963.986 351.72ZM925.97 351.336C926.312 352.061 926.738 353.043 927.25 354.28C927.762 355.517 928.296 356.883 928.85 358.376C929.448 359.827 930.002 361.235 930.514 362.6C931.069 363.923 931.496 364.989 931.794 365.8L926.93 367.592C926.674 366.781 926.29 365.693 925.778 364.328C925.309 362.92 924.776 361.469 924.178 359.976C923.581 358.483 923.005 357.117 922.45 355.88C921.938 354.643 921.533 353.747 921.234 353.192L925.97 351.336ZM984.53 340.52C986.152 340.563 988.2 340.584 990.674 340.584C993.192 340.541 995.816 340.435 998.546 340.264C1001.28 340.051 1003.77 339.816 1006.03 339.56C1007.48 339.347 1009 339.112 1010.58 338.856C1012.2 338.557 1013.76 338.237 1015.25 337.896C1016.79 337.555 1018.19 337.213 1019.47 336.872C1020.75 336.531 1021.78 336.189 1022.55 335.848L1025.94 340.264C1025.21 340.435 1024.55 340.605 1023.95 340.776C1023.36 340.947 1022.82 341.096 1022.35 341.224C1021.12 341.523 1019.67 341.843 1018 342.184C1016.38 342.525 1014.65 342.867 1012.82 343.208C1011.03 343.507 1009.26 343.763 1007.51 343.976C1005.16 344.317 1002.66 344.573 1000.02 344.744C997.416 344.915 994.877 345.043 992.402 345.128C989.928 345.171 987.73 345.213 985.81 345.256L984.53 340.52ZM988.114 384.104C991.784 382.397 994.813 380.349 997.202 377.96C999.634 375.571 1001.45 372.712 1002.64 369.384C1003.84 366.056 1004.43 362.195 1004.43 357.8C1004.43 357.8 1004.43 357.203 1004.43 356.008C1004.43 354.771 1004.43 353.085 1004.43 350.952C1004.43 348.776 1004.43 346.216 1004.43 343.272L1009.62 342.568C1009.62 343.592 1009.62 344.765 1009.62 346.088C1009.62 347.368 1009.62 348.712 1009.62 350.12C1009.62 351.485 1009.62 352.744 1009.62 353.896C1009.62 355.048 1009.62 355.987 1009.62 356.712C1009.62 357.395 1009.62 357.736 1009.62 357.736C1009.62 362.259 1009.06 366.355 1007.95 370.024C1006.89 373.651 1005.14 376.915 1002.71 379.816C1000.32 382.717 997.138 385.32 993.17 387.624L988.114 384.104ZM979.538 355.752C980.264 355.795 981.138 355.859 982.162 355.944C983.186 355.987 984.189 356.008 985.17 356.008C985.768 356.008 986.898 356.008 988.562 356.008C990.226 356.008 992.232 356.008 994.578 356.008C996.968 356.008 999.506 356.008 1002.19 356.008C1004.92 356.008 1007.63 356.008 1010.32 356.008C1013.05 356.008 1015.59 356.008 1017.94 356.008C1020.28 356.008 1022.29 356.008 1023.95 356.008C1025.62 356.008 1026.73 356.008 1027.28 356.008C1027.75 356.008 1028.28 356.008 1028.88 356.008C1029.52 355.965 1030.14 355.923 1030.74 355.88C1031.38 355.837 1031.91 355.795 1032.34 355.752V361.064C1031.66 360.979 1030.87 360.915 1029.97 360.872C1029.07 360.829 1028.22 360.808 1027.41 360.808C1026.86 360.808 1025.75 360.808 1024.08 360.808C1022.46 360.808 1020.46 360.808 1018.07 360.808C1015.72 360.808 1013.18 360.808 1010.45 360.808C1007.76 360.808 1005.05 360.808 1002.32 360.808C999.592 360.808 997.032 360.808 994.642 360.808C992.253 360.808 990.226 360.808 988.562 360.808C986.941 360.808 985.853 360.808 985.298 360.808C984.274 360.808 983.25 360.829 982.226 360.872C981.245 360.915 980.349 360.979 979.538 361.064V355.752ZM1048.91 341.096C1049.98 341.224 1051.15 341.331 1052.43 341.416C1053.71 341.459 1054.87 341.48 1055.89 341.48H1087.44C1088.21 341.48 1089.02 341.48 1089.87 341.48C1090.77 341.437 1091.54 341.395 1092.18 341.352C1092.14 342.077 1092.09 342.909 1092.05 343.848C1092.01 344.744 1091.99 345.576 1091.99 346.344V379.368C1091.99 380.52 1092.01 381.715 1092.05 382.952C1092.14 384.189 1092.2 385.064 1092.24 385.576H1086.48C1086.52 385.064 1086.55 384.296 1086.55 383.272C1086.59 382.205 1086.61 381.096 1086.61 379.944V346.6H1055.95C1054.76 346.6 1053.46 346.621 1052.05 346.664C1050.68 346.707 1049.64 346.749 1048.91 346.792V341.096ZM1048.08 376.424C1048.89 376.509 1049.94 376.595 1051.22 376.68C1052.54 376.765 1053.86 376.808 1055.19 376.808H1089.49V381.992H1055.31C1054.03 381.992 1052.71 382.013 1051.35 382.056C1050.02 382.099 1048.94 382.163 1048.08 382.248V376.424ZM1150.48 340.392C1150.48 341.544 1150.89 342.525 1151.7 343.336C1152.51 344.147 1153.51 344.552 1154.71 344.552C1155.86 344.552 1156.84 344.147 1157.65 343.336C1158.5 342.525 1158.93 341.544 1158.93 340.392C1158.93 339.197 1158.5 338.195 1157.65 337.384C1156.84 336.531 1155.86 336.104 1154.71 336.104C1153.51 336.104 1152.51 336.531 1151.7 337.384C1150.89 338.195 1150.48 339.197 1150.48 340.392ZM1147.54 340.392C1147.54 339.069 1147.86 337.853 1148.5 336.744C1149.14 335.635 1149.99 334.76 1151.06 334.12C1152.17 333.48 1153.38 333.16 1154.71 333.16C1156.03 333.16 1157.22 333.48 1158.29 334.12C1159.4 334.76 1160.27 335.635 1160.91 336.744C1161.55 337.853 1161.87 339.069 1161.87 340.392C1161.87 341.672 1161.55 342.867 1160.91 343.976C1160.27 345.043 1159.4 345.896 1158.29 346.536C1157.22 347.176 1156.03 347.496 1154.71 347.496C1153.38 347.496 1152.17 347.176 1151.06 346.536C1149.99 345.896 1149.14 345.043 1148.5 343.976C1147.86 342.867 1147.54 341.672 1147.54 340.392ZM1119.76 337C1119.68 337.725 1119.59 338.557 1119.51 339.496C1119.46 340.392 1119.44 341.288 1119.44 342.184C1119.44 342.739 1119.44 343.848 1119.44 345.512C1119.44 347.133 1119.44 349.096 1119.44 351.4C1119.44 353.661 1119.44 356.072 1119.44 358.632C1119.44 361.149 1119.44 363.581 1119.44 365.928C1119.44 368.275 1119.44 370.344 1119.44 372.136C1119.44 373.885 1119.44 375.165 1119.44 375.976C1119.44 377.597 1119.78 378.728 1120.47 379.368C1121.19 379.965 1122.34 380.413 1123.92 380.712C1124.95 380.883 1126.2 381.011 1127.7 381.096C1129.23 381.181 1130.79 381.224 1132.37 381.224C1134.08 381.224 1135.91 381.181 1137.87 381.096C1139.84 381.011 1141.82 380.883 1143.83 380.712C1145.87 380.541 1147.79 380.328 1149.59 380.072C1151.38 379.816 1152.94 379.517 1154.26 379.176V385C1152.42 385.299 1150.2 385.533 1147.6 385.704C1145.04 385.917 1142.4 386.067 1139.67 386.152C1136.98 386.28 1134.46 386.344 1132.11 386.344C1130.24 386.344 1128.38 386.28 1126.55 386.152C1124.75 386.067 1123.2 385.917 1121.87 385.704C1119.4 385.277 1117.5 384.445 1116.18 383.208C1114.86 381.928 1114.19 379.987 1114.19 377.384C1114.19 376.317 1114.19 374.824 1114.19 372.904C1114.19 370.984 1114.19 368.787 1114.19 366.312C1114.19 363.837 1114.19 361.32 1114.19 358.76C1114.19 356.157 1114.19 353.704 1114.19 351.4C1114.19 349.096 1114.19 347.133 1114.19 345.512C1114.19 343.848 1114.19 342.739 1114.19 342.184C1114.19 341.629 1114.17 341.053 1114.13 340.456C1114.13 339.859 1114.09 339.261 1114 338.664C1113.96 338.024 1113.9 337.469 1113.81 337H1119.76ZM1117.07 357.16C1118.99 356.733 1121.11 356.221 1123.41 355.624C1125.76 354.984 1128.12 354.301 1130.51 353.576C1132.95 352.851 1135.29 352.083 1137.55 351.272C1139.86 350.461 1141.93 349.651 1143.76 348.84C1144.74 348.413 1145.7 347.965 1146.64 347.496C1147.58 347.027 1148.5 346.515 1149.39 345.96L1151.63 351.08C1150.74 351.464 1149.74 351.891 1148.63 352.36C1147.56 352.787 1146.56 353.192 1145.62 353.576C1143.61 354.387 1141.37 355.219 1138.9 356.072C1136.47 356.925 1133.95 357.757 1131.35 358.568C1128.74 359.336 1126.2 360.061 1123.73 360.744C1121.3 361.427 1119.08 362.003 1117.07 362.472V357.16ZM1172.43 357.288C1173.07 357.331 1173.86 357.395 1174.8 357.48C1175.74 357.523 1176.76 357.565 1177.87 357.608C1179.03 357.608 1180.18 357.608 1181.33 357.608C1182.01 357.608 1183.06 357.608 1184.47 357.608C1185.92 357.608 1187.6 357.608 1189.52 357.608C1191.44 357.608 1193.47 357.608 1195.6 357.608C1197.78 357.608 1199.93 357.608 1202.07 357.608C1204.24 357.608 1206.29 357.608 1208.21 357.608C1210.17 357.608 1211.86 357.608 1213.27 357.608C1214.67 357.608 1215.72 357.608 1216.4 357.608C1218.02 357.608 1219.41 357.565 1220.56 357.48C1221.71 357.395 1222.63 357.331 1223.31 357.288V363.56C1222.67 363.517 1221.71 363.453 1220.43 363.368C1219.2 363.283 1217.87 363.24 1216.47 363.24C1215.78 363.24 1214.72 363.24 1213.27 363.24C1211.82 363.24 1210.13 363.24 1208.21 363.24C1206.33 363.24 1204.31 363.24 1202.13 363.24C1199.95 363.24 1197.78 363.24 1195.6 363.24C1193.47 363.24 1191.44 363.24 1189.52 363.24C1187.64 363.24 1185.98 363.24 1184.53 363.24C1183.08 363.24 1182.01 363.24 1181.33 363.24C1179.58 363.24 1177.92 363.283 1176.34 363.368C1174.76 363.411 1173.46 363.475 1172.43 363.56V357.288Z" fill="white"/>
</svg>
